<svg width="24" height="27" viewBox="0 0 24 27" fill="none" xmlns="http://www.w3.org/2000/svg">
<path d="M18.4119 18.5797C17.4293 17.6438 16.3051 16.8822 15.0845 16.3255L13.6378 15.7807L10.5273 14.5597C10.2923 14.4657 9.13496 13.9022 9.91256 14.3154L8.64668 13.658L8.06799 13.3386L8.64668 13.0193L9.91256 12.3806C9.13496 12.7938 10.2923 12.2303 10.5273 12.1364L13.6378 10.9153C14.1261 10.7275 14.6143 10.5584 15.0845 10.3518C16.2928 9.79234 17.4047 9.03083 18.3757 8.09754C19.6958 6.95165 21.1244 5.95604 22.4265 4.79136C22.93 4.26062 23.2123 3.54534 23.2123 2.80013C23.2123 2.05491 22.93 1.3396 22.4265 0.808869C21.9133 0.290193 21.2256 0 20.5096 0C19.7936 0 19.1059 0.290193 18.5927 0.808869C17.5258 1.76692 16.3504 2.6874 15.2473 3.51395C14.7952 3.88965 14.3792 4.30293 13.9271 4.65985C13.7725 4.77378 13.6093 4.87431 13.4389 4.96042C13.4389 4.96042 13.3304 4.96042 13.2761 4.96042C13.041 5.12948 13.0772 5.07313 13.2761 4.96042C10.6049 5.8573 8.00508 6.969 5.50014 8.28541C4.21619 8.99925 2.91418 9.71308 1.6664 10.4833C1.28531 10.6665 0.943405 10.9271 0.660781 11.2497C0.378158 11.5723 0.160475 11.9505 0.0207219 12.3618C-0.00593481 12.6241 -0.00593481 12.8885 0.0207219 13.1508C-0.0069073 13.413 -0.0069073 13.6775 0.0207219 13.9397C0.151806 14.3673 0.365284 14.7627 0.648199 15.1018C0.931113 15.4409 1.2776 15.7166 1.6664 15.9122C2.91418 16.6824 4.21619 17.3962 5.50014 18.0913C8.00159 19.4156 10.602 20.5275 13.2761 21.4163C13.1314 21.266 13.1676 21.4163 13.2761 21.4163C13.2761 21.4163 13.4208 21.4163 13.4389 21.4163L13.9271 21.7168C14.3792 22.0737 14.7952 22.5058 15.2473 22.8627C16.3504 23.7644 17.5258 24.6285 18.5927 25.5866C19.1102 26.0966 19.7963 26.3809 20.5096 26.3809C21.2229 26.3809 21.909 26.0966 22.4265 25.5866C22.93 25.0558 23.2123 24.3406 23.2123 23.5954C23.2123 22.8501 22.93 22.1349 22.4265 21.6041C21.1606 20.74 19.732 19.7444 18.4119 18.5797Z" fill="#4A6118"/>
</svg>
