<svg width="83" height="83" viewBox="0 0 83 83" fill="none" xmlns="http://www.w3.org/2000/svg">
<path d="M0.569336 0H82.9075V83H0.569336V0Z" fill="black" fill-opacity="0.26"/>
<path d="M30.9925 36.3215V48.0098H29.6137L29.6363 35.6607L33.2527 32.0608H34.6315L34.6089 48.0098H33.2301L33.2527 34.043L30.9925 36.3215Z" fill="white"/>
<path d="M39.6491 48.0098C38.3833 48.0098 37.321 46.9617 37.321 45.663V34.4076C37.321 33.1089 38.3833 32.0608 39.6491 32.0608C40.9374 32.0608 41.9998 33.1089 41.9998 34.4076V45.663C41.9998 46.9617 40.9374 48.0098 39.6491 48.0098ZM39.6491 33.4051C39.1066 33.4051 38.6772 33.8607 38.6772 34.4076V45.663C38.6772 46.2098 39.1066 46.6655 39.6491 46.6655C40.2142 46.6655 40.6436 46.2098 40.6436 45.663V34.4076C40.6436 33.8607 40.2142 33.4051 39.6491 33.4051Z" fill="white"/>
<path d="M45.7675 33.4734L45.7901 48.0098H44.4114L44.3888 32.0608H47.8922L47.9148 33.4506L45.7675 33.4734Z" fill="white"/>
<path d="M52.2836 48.0098C51.0179 48.0098 49.9555 46.9617 49.9555 45.663V34.4076C49.9555 33.1089 51.0179 32.0608 52.2836 32.0608C53.572 32.0608 54.6343 33.1089 54.6343 34.4076V45.663C54.6343 46.9617 53.572 48.0098 52.2836 48.0098ZM52.2836 33.4051C51.7411 33.4051 51.3117 33.8607 51.3117 34.4076V45.663C51.3117 46.2098 51.7411 46.6655 52.2836 46.6655C52.8487 46.6655 53.2781 46.2098 53.2781 45.663V34.4076C53.2781 33.8607 52.8487 33.4051 52.2836 33.4051Z" fill="white"/>
</svg>
